<svg width="1900" height="100" viewBox="0 0 1900 100" fill="none" xmlns="http://www.w3.org/2000/svg">
<path fill-rule="evenodd" clip-rule="evenodd" d="M1900 95.5224L1873.08 85.5721C1847.75 75.6219 1793.92 55.7214 1741.67 57.7114C1689.42 59.7015 1635.58 83.5821 1583.33 93.5323C1531.08 103.483 1477.25 99.5025 1425 97.5124C1372.75 95.5224 1318.92 95.5224 1266.67 89.5522C1214.42 83.5821 1160.58 71.6418 1108.33 73.6318C1056.08 75.6219 1002.25 91.5423 950 93.5323C897.75 95.5224 843.917 83.5821 791.667 73.6318C739.417 63.6816 685.583 55.7214 633.333 55.7214C581.083 55.7214 527.25 63.6816 475 67.6617C422.75 71.6418 368.917 71.6418 316.667 63.6816C264.417 55.7214 210.583 39.801 158.333 39.801C106.083 39.801 52.25 55.7214 26.9166 63.6816L-4.76837e-05 71.6418V-1.41561e-06H26.9166C52.25 -1.41561e-06 106.083 -1.41561e-06 158.333 -1.41561e-06C210.583 -1.41561e-06 264.417 -1.41561e-06 316.667 -1.41561e-06C368.917 -1.41561e-06 422.75 -1.41561e-06 475 -1.41561e-06C527.25 -1.41561e-06 581.083 -1.41561e-06 633.333 -1.41561e-06C685.583 -1.41561e-06 739.417 -1.41561e-06 791.667 -1.41561e-06C843.917 -1.41561e-06 897.75 -1.41561e-06 950 -1.41561e-06C1002.25 -1.41561e-06 1056.08 -1.41561e-06 1108.33 -1.41561e-06C1160.58 -1.41561e-06 1214.42 -1.41561e-06 1266.67 -1.41561e-06C1318.92 -1.41561e-06 1372.75 -1.41561e-06 1425 -1.41561e-06C1477.25 -1.41561e-06 1531.08 -1.41561e-06 1583.33 -1.41561e-06C1635.58 -1.41561e-06 1689.42 -1.41561e-06 1741.67 -1.41561e-06C1793.92 -1.41561e-06 1847.75 -1.41561e-06 1873.08 -1.41561e-06H1900V95.5224Z" fill="#F6F6F6"/>
</svg>
