<svg width="1900" height="275" viewBox="0 0 1900 275" fill="none" xmlns="http://www.w3.org/2000/svg">
<path fill-rule="evenodd" clip-rule="evenodd" d="M0 22.9058L52.25 52.9058C106.083 82.9058 210.583 142.906 316.667 142.906C422.75 142.906 527.25 82.9058 633.333 94.9058C739.417 106.906 843.917 190.906 950 214.906C1056.08 238.906 1160.58 202.906 1266.67 148.906C1372.75 94.9058 1477.25 22.9058 1583.33 4.90576C1689.42 -13.0942 1793.92 22.9058 1847.75 40.9058L1900 58.9058V274.906H1847.75C1793.92 274.906 1689.42 274.906 1583.33 274.906C1477.25 274.906 1372.75 274.906 1266.67 274.906C1160.58 274.906 1056.08 274.906 950 274.906C843.917 274.906 739.417 274.906 633.333 274.906C527.25 274.906 422.75 274.906 316.667 274.906C210.583 274.906 106.083 274.906 52.25 274.906H0V22.9058Z" fill="#E3E2E2"/>
</svg>
