<svg width="1200" height="275" viewBox="0 0 1200 275" fill="none" xmlns="http://www.w3.org/2000/svg">
<path fill-rule="evenodd" clip-rule="evenodd" d="M0 22.9058L33 52.9058C67 82.9058 133 142.906 200 142.906C267 142.906 333 82.9058 400 94.9058C467 106.906 533 190.906 600 214.906C667 238.906 733 202.906 800 148.906C867 94.9058 933 22.9058 1000 4.90576C1067 -13.0942 1133 22.9058 1167 40.9058L1200 58.9058V274.906H1167C1133 274.906 1067 274.906 1000 274.906C933 274.906 867 274.906 800 274.906C733 274.906 667 274.906 600 274.906C533 274.906 467 274.906 400 274.906C333 274.906 267 274.906 200 274.906C133 274.906 67 274.906 33 274.906H0V22.9058Z" fill="#E3E2E2"/>
</svg>
